<svg width="204" height="39" viewBox="0 0 204 39" fill="none" xmlns="http://www.w3.org/2000/svg">
<path d="M71.1473 18.7304C71.1473 12.3489 66.9143 7.18596 59.8594 7.18596C52.8045 7.18596 48.5715 12.3489 48.5715 18.7304C48.5715 25.1119 52.8045 30.2748 59.8594 30.2748C61.4949 30.2748 63.0021 29.9862 64.3168 29.4731L66.4013 32.0706H70.6342L67.2029 27.8056C69.7363 25.6891 71.1473 22.4182 71.1473 18.7304ZM59.8594 26.4267C55.5303 26.4267 52.9328 22.9954 52.9328 18.7304C52.9328 14.4654 55.5303 11.0341 59.8594 11.0341C64.1886 11.0341 66.7861 14.4654 66.7861 18.7304C66.7861 21.0713 66.0164 23.1557 64.6055 24.5667L62.8097 22.322H58.5767L61.6873 26.2022C61.1101 26.3625 60.5008 26.4267 59.8594 26.4267Z" fill="#F8FFF2"/>
<path d="M78.329 30.2748C81.2792 30.2748 83.1392 27.8697 83.9729 26.2022C84.1012 25.9456 84.1974 25.7532 84.4539 25.8174C84.8708 25.9136 84.6784 26.3625 84.5501 26.6511C84.2615 27.3246 84.0371 27.9338 84.0371 28.96V30.0183H88.1418V13.0864L84.0371 13.0864V19.981C84.0371 23.8933 81.8564 26.5549 79.4834 26.5549C77.3349 26.5549 76.3408 25.4967 76.3408 21.6806V13.0864H72.2361V23.0916C72.2361 27.9018 74.6733 30.2748 78.329 30.2748Z" fill="#F8FFF2"/>
<path d="M105.656 21.3279C105.656 15.1708 101.584 12.8299 97.6714 12.8299C92.5085 12.8299 89.2376 16.2612 89.2376 21.5524C89.2376 26.587 92.2519 30.2748 97.7355 30.2748C102.257 30.2748 104.63 27.6132 105.368 24.1178L101.199 24.1178C100.718 25.625 99.7238 26.6832 97.7676 26.6832C95.2022 26.6832 93.5347 25.1439 93.246 22.5785H105.56C105.624 22.0975 105.656 21.7768 105.656 21.3279ZM93.4064 19.7565C93.8233 17.7363 95.0098 16.165 97.7997 16.165C100.173 16.165 101.391 17.7042 101.552 19.7565H93.4064Z" fill="#F8FFF2"/>
<path d="M106.22 24.3102C106.38 27.9338 108.978 30.2748 113.884 30.2748C118.887 30.2748 121.612 28.2545 121.612 24.7271C121.612 21.3279 118.63 19.981 114.493 19.5641C111.19 19.2435 110.838 18.57 110.838 17.7683C110.838 16.8063 111.543 16.0367 113.884 16.0367C116.257 16.0367 116.962 17.2232 117.059 18.2814L121.099 18.2814C120.875 15.2029 118.438 12.8299 113.98 12.8299C109.17 12.8299 106.733 15.235 106.733 17.9928C106.733 19.8848 107.406 22.5785 112.601 23.2199C115.84 23.6047 117.508 23.7971 117.508 25.0477C117.508 26.1701 116.642 27.068 114.012 27.068C111.03 27.068 110.292 25.5608 110.26 24.3102H106.22Z" fill="#F8FFF2"/>
<path d="M133.488 16.678V13.0864H128.87V8.46867H124.765V13.0864L121.687 13.0864V16.678H124.765V24.8233C124.765 28.8959 126.369 30.0183 129.768 30.0183H133.488V26.4267H130.634C128.902 26.4267 128.87 26.2663 128.87 24.4064V16.678H133.488Z" fill="#F8FFF2"/>
<path d="M138.747 6.92941H134.643V30.0183H138.747V29.2807C138.747 28.6393 138.587 28.1263 138.298 27.549C138.138 27.2284 138.01 26.9077 138.362 26.7794C138.651 26.6832 138.779 27.0039 138.844 27.1001C139.87 28.96 141.633 30.2748 144.199 30.2748C148.592 30.2748 151.574 26.4267 151.574 21.5524C151.574 16.678 148.592 12.8299 144.199 12.8299C141.569 12.8299 139.87 14.1767 138.844 15.9725C138.779 16.1008 138.587 16.5177 138.266 16.3574C137.946 16.197 138.17 15.8122 138.298 15.4915C138.587 14.9143 138.747 14.4012 138.747 13.7278V6.92941ZM143.237 26.5549C140.543 26.5549 138.747 24.246 138.747 21.5524C138.747 18.8587 140.543 16.5498 143.237 16.5498C146.123 16.5498 147.47 18.8587 147.47 21.5524C147.47 24.246 146.123 26.5549 143.237 26.5549Z" fill="#F8FFF2"/>
<path d="M160.881 12.8299C155.59 12.8299 152.415 16.7422 152.415 21.5524C152.415 26.3625 155.59 30.2748 160.881 30.2748C166.172 30.2748 169.347 26.3625 169.347 21.5524C169.347 16.7422 166.172 12.8299 160.881 12.8299ZM160.881 26.5549C158.091 26.5549 156.52 24.3102 156.52 21.5524C156.52 18.7945 158.091 16.5498 160.881 16.5498C163.671 16.5498 165.242 18.7945 165.242 21.5524C165.242 24.3102 163.671 26.5549 160.881 26.5549Z" fill="#F8FFF2"/>
<path d="M178.521 12.8299C173.23 12.8299 170.055 16.7422 170.055 21.5524C170.055 26.3625 173.23 30.2748 178.521 30.2748C183.812 30.2748 186.987 26.3625 186.987 21.5524C186.987 16.7422 183.812 12.8299 178.521 12.8299ZM178.521 26.5549C175.731 26.5549 174.159 24.3102 174.159 21.5524C174.159 18.7945 175.731 16.5498 178.521 16.5498C181.311 16.5498 182.882 18.7945 182.882 21.5524C182.882 24.3102 181.311 26.5549 178.521 26.5549Z" fill="#F8FFF2"/>
<path d="M204 30.0183L196.432 20.1734L203.487 13.0864H198.356L191.911 20.0131C191.814 20.1093 191.622 20.3017 191.365 20.1093C191.173 19.949 191.237 19.7245 191.365 19.5641C191.878 18.9228 192.199 18.3776 192.199 17.0308V6.92941L188.094 6.92941V30.0183L192.199 30.0183V24.4064L193.674 22.9313L198.869 30.0183H204Z" fill="#F8FFF2"/>
<rect width="38.8571" height="38.8571" transform="translate(0 0.0714264)" fill="#F8FFF2"/>
<path d="M10.9883 16.7722C9.5763 17.9596 8.26053 19.2433 6.97686 20.4948V16.0662C9.76885 12.8891 14.9356 8.52457 21.2256 8.52457C26.3924 8.52457 31.5592 11.5412 35.4744 16.0662V20.4948C33.0996 18.0559 30.1793 15.4564 27.1626 13.7876C28.8635 17.5745 27.4836 20.8479 26.0073 22.6771L26.5208 23.3189C28.4463 21.8427 30.2756 20.1097 31.8481 18.441V22.9659C27.9649 27.4909 22.8623 30.4433 17.6955 30.4433C12.4967 30.4433 7.32987 27.4909 3.38257 22.9659V18.441C7.32987 22.5166 12.4967 26.849 17.6955 26.849C18.7867 26.849 19.9099 26.6565 20.9368 26.3035L20.7443 25.7258C14.6468 26.3997 10.6032 21.586 10.9883 16.7722ZM3.38257 35.5459H35.4744V23.7361C35.4744 23.7361 33.9982 25.3728 31.8481 26.849V31.9516H6.97686V29.8336C4.89089 28.4857 3.38257 26.849 3.38257 26.849V35.5459ZM3.38257 15.2318C3.38257 15.2318 4.89089 13.6272 6.97686 12.183V7.04835H31.8481V9.13432C34.0303 10.5143 35.4744 12.183 35.4744 12.183V7.04835H31.8481V3.45406H3.38257V15.2318ZM18.7225 15.2639C20.0703 15.2639 21.1936 16.4513 21.1936 17.767H21.8675C21.8675 16.4513 22.9907 15.2639 24.3707 15.2639V14.5578C22.9907 14.5578 21.8675 13.4346 21.8675 12.1189H21.1936C21.1936 13.4346 20.0703 14.5578 18.7225 14.5578V15.2639Z" fill="#1F1F33"/>
</svg>
