<svg width="156" height="27" viewBox="0 0 156 27" fill="none" xmlns="http://www.w3.org/2000/svg">
<path d="M23.1473 12.7304C23.1473 6.34888 18.9143 1.18596 11.8594 1.18596C4.80449 1.18596 0.571533 6.34888 0.571533 12.7304C0.571533 19.1119 4.80449 24.2748 11.8594 24.2748C13.4949 24.2748 15.0021 23.9862 16.3168 23.4731L18.4013 26.0706H22.6342L19.2029 21.8056C21.7363 19.6891 23.1473 16.4182 23.1473 12.7304ZM11.8594 20.4267C7.53026 20.4267 4.93276 16.9954 4.93276 12.7304C4.93276 8.46536 7.53026 5.0341 11.8594 5.0341C16.1886 5.0341 18.7861 8.46536 18.7861 12.7304C18.7861 15.0713 18.0164 17.1557 16.6055 18.5667L14.8097 16.322H10.5767L13.6873 20.2022C13.1101 20.3625 12.5008 20.4267 11.8594 20.4267Z" fill="#F8FFF2"/>
<path d="M30.329 24.2748C33.2792 24.2748 35.1392 21.8697 35.9729 20.2022C36.1012 19.9456 36.1974 19.7532 36.4539 19.8174C36.8708 19.9136 36.6784 20.3625 36.5501 20.6511C36.2615 21.3246 36.0371 21.9338 36.0371 22.96L36.0371 24.0183H40.1418L40.1418 7.08644L36.0371 7.08644V13.981C36.0371 17.8933 33.8564 20.5549 31.4834 20.5549C29.3349 20.5549 28.3408 19.4967 28.3408 15.6806L28.3408 7.08644L24.2361 7.08644L24.2361 17.0916C24.2361 21.9018 26.6733 24.2748 30.329 24.2748Z" fill="#F8FFF2"/>
<path d="M57.6563 15.3279C57.6563 9.17085 53.5837 6.8299 49.6714 6.8299C44.5085 6.8299 41.2376 10.2612 41.2376 15.5524C41.2376 20.587 44.2519 24.2748 49.7355 24.2748C54.2571 24.2748 56.6301 21.6132 57.3677 18.1178L53.1989 18.1178C52.7179 19.625 51.7238 20.6832 49.7676 20.6832C47.2022 20.6832 45.5347 19.1439 45.246 16.5785H57.5601C57.6242 16.0975 57.6563 15.7768 57.6563 15.3279ZM45.4064 13.7565C45.8233 11.7363 47.0098 10.165 49.7997 10.165C52.1727 10.165 53.3913 11.7042 53.5516 13.7565L45.4064 13.7565Z" fill="#F8FFF2"/>
<path d="M58.2197 18.3102C58.3801 21.9338 60.9776 24.2748 65.884 24.2748C70.8865 24.2748 73.6123 22.2545 73.6123 18.7271C73.6123 15.3279 70.63 13.981 66.4932 13.5641C63.1903 13.2435 62.8375 12.57 62.8375 11.7683C62.8375 10.8063 63.543 10.0367 65.884 10.0367C68.257 10.0367 68.9625 11.2232 69.0587 12.2814L73.0992 12.2814C72.8747 9.20292 70.4376 6.8299 65.9802 6.8299C61.17 6.8299 58.7328 9.23498 58.7328 11.9928C58.7328 13.8848 59.4063 16.5785 64.6012 17.2199C67.8401 17.6047 69.5076 17.7971 69.5076 19.0477C69.5076 20.1701 68.6418 21.068 66.0122 21.068C63.0299 21.068 62.2924 19.5608 62.2603 18.3102H58.2197Z" fill="#F8FFF2"/>
<path d="M85.4877 10.678V7.08644H80.8699V2.46867L76.7652 2.46867V7.08644L73.6867 7.08644V10.678H76.7652V18.8233C76.7652 22.8959 78.3686 24.0183 81.7678 24.0183H85.4877V20.4267H82.6336C80.902 20.4267 80.8699 20.2663 80.8699 18.4064V10.678L85.4877 10.678Z" fill="#F8FFF2"/>
<path d="M90.7473 0.929413L86.6426 0.929413V24.0183H90.7473V23.2807C90.7473 22.6393 90.587 22.1263 90.2984 21.549C90.138 21.2284 90.0097 20.9077 90.3625 20.7794C90.6511 20.6832 90.7794 21.0039 90.8435 21.1001C91.8697 22.96 93.6334 24.2748 96.1988 24.2748C100.592 24.2748 103.574 20.4267 103.574 15.5524C103.574 10.678 100.592 6.8299 96.1988 6.8299C93.5693 6.8299 91.8697 8.17674 90.8435 9.97254C90.7794 10.1008 90.587 10.5177 90.2663 10.3574C89.9456 10.197 90.1701 9.81221 90.2984 9.49153C90.587 8.91431 90.7473 8.40122 90.7473 7.7278V0.929413ZM95.2368 20.5549C92.5431 20.5549 90.7473 18.246 90.7473 15.5524C90.7473 12.8587 92.5431 10.5498 95.2368 10.5498C98.1229 10.5498 99.4698 12.8587 99.4698 15.5524C99.4698 18.246 98.1229 20.5549 95.2368 20.5549Z" fill="#F8FFF2"/>
<path d="M112.881 6.8299C107.59 6.8299 104.415 10.7422 104.415 15.5524C104.415 20.3625 107.59 24.2748 112.881 24.2748C118.172 24.2748 121.347 20.3625 121.347 15.5524C121.347 10.7422 118.172 6.8299 112.881 6.8299ZM112.881 20.5549C110.091 20.5549 108.52 18.3102 108.52 15.5524C108.52 12.7945 110.091 10.5498 112.881 10.5498C115.671 10.5498 117.242 12.7945 117.242 15.5524C117.242 18.3102 115.671 20.5549 112.881 20.5549Z" fill="#F8FFF2"/>
<path d="M130.521 6.8299C125.23 6.8299 122.055 10.7422 122.055 15.5524C122.055 20.3625 125.23 24.2748 130.521 24.2748C135.812 24.2748 138.987 20.3625 138.987 15.5524C138.987 10.7422 135.812 6.8299 130.521 6.8299ZM130.521 20.5549C127.731 20.5549 126.159 18.3102 126.159 15.5524C126.159 12.7945 127.731 10.5498 130.521 10.5498C133.311 10.5498 134.882 12.7945 134.882 15.5524C134.882 18.3102 133.311 20.5549 130.521 20.5549Z" fill="#F8FFF2"/>
<path d="M156 24.0183L148.432 14.1734L155.487 7.08644L150.356 7.08644L143.911 14.0131C143.814 14.1093 143.622 14.3017 143.365 14.1093C143.173 13.949 143.237 13.7245 143.365 13.5641C143.878 12.9228 144.199 12.3776 144.199 11.0308V0.929413L140.094 0.929413V24.0183L144.199 24.0183V18.4064L145.674 16.9313L150.869 24.0183H156Z" fill="#F8FFF2"/>
</svg>
